<svg id="Layer_1" enable-background="new 0 0 512 512" height="512" viewBox="0 0 512 512" width="512" xmlns="http://www.w3.org/2000/svg"><g><g><path d="m483.544 379.759c-2.138-3.549-6.748-4.695-10.294-2.557-3.549 2.136-4.693 6.745-2.558 10.294 7.725 12.831 11.808 27.576 11.808 42.64v66.864h-243.004v-93.8c2.399.849 4.929 1.297 7.481 1.297h.004c8.062 0 15.552-4.345 19.549-11.34 6.154-10.772 2.398-24.543-8.373-30.698l-12.881-7.361c7.542-3.52 15.593-5.884 23.864-7.004 4.203 16.105 13.563 42.445 30.778 48.481 3.458 1.212 6.87 1.731 10.182 1.73 12.521-.001 23.57-7.415 29.897-12.747 6.327 5.332 17.375 12.747 29.898 12.747 3.311 0 6.725-.519 10.182-1.73 17.217-6.037 26.577-32.382 30.779-48.484 13.906 1.871 27.056 7.221 38.382 15.691 1.349 1.008 2.924 1.494 4.486 1.494 2.283 0 4.539-1.04 6.012-3.009 2.482-3.317 1.803-8.017-1.514-10.498-14.951-11.181-32.593-17.765-51.163-19.147-.555-.524-1.155-1.009-1.8-1.446l-27.762-18.825v-9.453c32.003-12.465 56.37-40.321 63.964-74.427 3.681 1.486 7.556 2.253 11.528 2.253 22.052 0 33.59-25.028 33.59-49.751 0-21.993-8.736-37.651-22.99-42.716 3.76-10.287 5.737-23.921 2.279-42.478 7.33-15.018 8.434-28.502 3.273-40.11-5.551-12.481-17.017-19.303-24.536-22.592.801-5.865.267-14.294-5.818-23.275-2.853-4.211-11.537-17.024-88.559-4.345-4.088.673-6.856 4.531-6.183 8.619.672 4.086 4.53 6.856 8.618 6.182 53.507-8.808 71.331-4.438 73.747-1.98 5.643 8.382 2.843 15.33 2.497 16.111-1.115 2.022-1.175 4.332-.264 6.458.919 2.145 2.847 3.622 5.108 4.197.161.041 16.219 4.433 21.683 16.72 3.475 7.815 2.108 17.718-4.062 29.435-.813 1.543-1.063 3.321-.706 5.027 4.51 21.602.708 34.709-4.463 44.059-.04.07-.081.14-.118.211-2.009 3.597-4.215 6.639-6.216 9.395-2.158 2.972-4.022 5.538-5.307 8.302-1.501 3.23-2.705 8.238-3.608 13.065-4.208-3.759-7.471-7.163-8.519-9.016 2.122-20.94 3.371-56.619-10.599-68.999-4.716-4.18-10.662-5.597-17.199-4.1-6.055 1.389-11.31 2.697-15.946 3.851-15.096 3.759-24.207 6.028-39.547 6.028-15.338 0-24.451-2.269-39.547-6.028-4.636-1.154-9.889-2.463-15.944-3.851-6.535-1.497-12.483-.08-17.199 4.099-14 12.407-12.714 48.229-10.584 69.15-.905 1.82-3.935 5.25-7.868 9.048-1.266-4.884-2.793-10.06-4.275-13.25-.368-.792-.742-1.572-1.119-2.356-2.716-5.651-5.282-10.989-6.087-23.865-.021-.321-.063-.646-.123-.962-.04-.207-3.937-20.888.716-43.235 5.977-28.705 22.88-46.769 50.242-53.689 10.479-2.65 20.931-5.1 31.067-7.281 4.05-.871 6.626-4.86 5.755-8.91-.872-4.051-4.869-6.629-8.909-5.754-10.312 2.218-20.94 4.709-31.59 7.403-33 8.347-54.194 30.958-61.294 65.389-4.839 23.471-1.448 44.812-.805 48.43.082 1.234.184 2.397.295 3.529-17.456 2.708-28.46 19.403-28.46 44.084 0 24.723 11.538 49.751 33.59 49.751 3.942 0 7.786-.756 11.438-2.217 4.188 19.2 13.771 36.83 27.999 51.051 10.431 10.431 22.69 18.367 36.054 23.511v9.282l-27.764 18.827c-.643.436-1.241.92-1.795 1.442-15.223 1.138-29.988 5.834-43.04 13.692l-76.74-43.851c-6.886-3.935-15.442-3.935-22.326 0l-3.838 2.193v-4.267c5.633-.739 10-5.559 10-11.391v-22c0-6.341-5.159-11.5-11.5-11.5h-72c-6.341 0-11.5 5.159-11.5 11.5v22c0 5.832 4.367 10.652 10 11.391v47.124l-26.16 14.949c-10.772 6.155-14.528 19.926-8.373 30.699 2.982 5.218 7.818 8.963 13.616 10.544 1.969.537 3.969.803 5.955.803 2.54 0 5.056-.443 7.462-1.299v31.716c0 4.142 3.357 7.5 7.5 7.5s7.5-3.358 7.5-7.5v-39.869l82.501-47.142 82.501 47.143v101.945h-31.885v-88.501c0-6.341-5.159-11.5-11.5-11.5h-78.001c-6.341 0-11.5 5.159-11.5 11.5v88.501h-32.116v-21.77c0-4.142-3.357-7.5-7.5-7.5s-7.5 3.358-7.5 7.5v29.27c0 4.142 3.357 7.5 7.5 7.5h438.007c4.143 0 7.5-3.358 7.5-7.5v-74.365c0-17.79-4.826-35.209-13.956-50.376zm-108.43 2.662c-8.199 2.875-17.128-2.013-22.996-6.423 17.184-13.882 22.856-33.051 24.656-46.014l19.8 13.426c-5.354 21.017-13.763 36.312-21.46 39.011zm96.466-201.447c0 17.082-6.953 34.751-18.59 34.751-3.725 0-6.861-1.356-9.276-2.968.151-2.292.236-4.602.236-6.932v-19.944c.762-6.832 2.537-17.749 4.216-21.362.673-1.447 2.142-3.47 3.842-5.813 1.447-1.994 3.075-4.236 4.718-6.795 10.868 2.527 14.854 16.192 14.854 29.063zm-244.574 34.751c-11.637 0-18.59-17.669-18.59-34.751 0-13.42 4.333-27.701 16.282-29.323 1.344 4.328 2.915 7.609 4.392 10.683.35.727.697 1.45 1.037 2.181 1.845 3.972 4.535 15.066 5.919 21.646v20.023c0 2.208.076 4.404.212 6.588-2.405 1.604-5.532 2.953-9.252 2.953zm24.04-9.54v-17.275c20.85-17.403 20.099-24.685 19.841-27.143-2.968-28.225-.698-51.786 5.518-57.294.694-.614 1.623-1.227 3.898-.705 5.917 1.356 11.099 2.647 15.67 3.785 15.091 3.758 25.995 6.473 43.173 6.473s28.081-2.715 43.172-6.473c4.572-1.139 9.754-2.429 15.672-3.786 2.272-.522 3.204.089 3.898.705 6.218 5.511 8.486 29.071 5.517 57.294-.263 2.502-1.025 9.912 21.544 27.371v16.687c0 49.147-39.984 89.131-89.131 89.131-23.708 0-46-9.235-62.769-26.005-16.768-16.758-26.003-39.048-26.003-62.765zm88.772 103.772c7.788 0 15.376-.866 22.68-2.495v14.079c-.448 9.532-3.638 31.427-22.504 44.785-18.673-13.187-22.006-34.47-22.497-44.275v-14.493c7.25 1.582 14.723 2.399 22.321 2.399zm-36.596 20.027c1.8 12.963 7.472 32.132 24.655 46.014-5.87 4.412-14.798 9.297-22.995 6.423-7.696-2.698-16.105-17.993-21.459-39.01zm-246.229-59.488h65.001v15h-65.001zm10.001 30h45.001v12.729l-45.001 25.715zm71.28 32.265-89.832 51.331c-.029.015-.056.032-.085.048l-7.643 4.367c-1.738.993-3.757 1.251-5.692.724-1.933-.527-3.545-1.776-4.539-3.515-2.051-3.59-.799-8.181 2.791-10.233l105.001-59.999c1.146-.656 2.434-.983 3.72-.983s2.573.328 3.721.983l105 59.999c3.59 2.052 4.842 6.642 2.791 10.232-1.333 2.333-3.833 3.781-6.527 3.781-1.308 0-2.555-.333-3.706-.991l-7.637-4.364c-.03-.017-.059-.035-.09-.051l-89.83-51.33c-2.306-1.317-5.138-1.317-7.443.001zm-31.665 164.239v-85.001h71.001v85.001z"/><path d="m316.497 441.679c0 12.958 10.542 23.5 23.5 23.5s23.5-10.542 23.5-23.5-10.542-23.5-23.5-23.5-23.5 10.542-23.5 23.5zm32.001 0c0 4.687-3.814 8.5-8.5 8.5-4.687 0-8.5-3.813-8.5-8.5s3.814-8.5 8.5-8.5 8.5 3.813 8.5 8.5z"/><path d="m332.103 231.155c2.988.78 5.441 1.17 7.895 1.17 2.453 0 4.906-.39 7.895-1.17 4.008-1.046 6.408-5.143 5.362-9.151-1.047-4.008-5.145-6.406-9.151-5.363-3.49.911-4.721.911-8.211 0-4.013-1.046-8.106 1.355-9.152 5.363s1.354 8.105 5.362 9.151z"/><path d="m313.809 152.245c.635.166 1.272.245 1.899.245 3.33 0 6.371-2.235 7.252-5.607 1.047-4.008-1.354-8.105-5.362-9.152-11.342-2.962-18.26-2.962-29.602 0-4.008 1.047-6.409 5.144-5.362 9.152s5.146 6.409 9.152 5.362c8.952-2.338 13.069-2.338 22.023 0z"/><path d="m366.186 152.245c8.953-2.338 13.071-2.338 22.024 0 .635.166 1.272.245 1.899.245 3.33 0 6.371-2.235 7.252-5.607 1.047-4.008-1.355-8.105-5.362-9.152-11.342-2.962-18.26-2.962-29.602 0-4.008 1.047-6.409 5.144-5.362 9.152s5.147 6.409 9.151 5.362z"/><path d="m362.495 255.391c3.619-2.014 4.92-6.582 2.906-10.201-2.016-3.619-6.581-4.921-10.201-2.906-9.377 5.219-21.028 5.219-30.405 0-3.62-2.015-8.187-.713-10.201 2.906s-.713 8.187 2.906 10.201c6.939 3.862 14.718 5.793 22.497 5.793 7.78 0 15.559-1.931 22.498-5.793z"/><path d="m297.997 172.418c-4.143 0-7.5 3.358-7.5 7.5v6c0 4.142 3.357 7.5 7.5 7.5s7.5-3.358 7.5-7.5v-6c0-4.142-3.357-7.5-7.5-7.5z"/><path d="m381.998 172.418c-4.143 0-7.5 3.358-7.5 7.5v6c0 4.142 3.357 7.5 7.5 7.5s7.5-3.358 7.5-7.5v-6c0-4.142-3.357-7.5-7.5-7.5z"/></g></g></svg>