<?xml version="1.0" standalone="no"?>
<!DOCTYPE svg PUBLIC "-//W3C//DTD SVG 20010904//EN"
 "http://www.w3.org/TR/2001/REC-SVG-20010904/DTD/svg10.dtd">
<svg version="1.0" xmlns="http://www.w3.org/2000/svg"
 width="446.000000pt" height="451.000000pt" viewBox="0 0 446.000000 451.000000"
 preserveAspectRatio="xMidYMid meet">
<metadata>
Created by potrace 1.16, written by Peter Selinger 2001-2019
</metadata>
<g transform="translate(0.000000,451.000000) scale(0.100000,-0.100000)"
fill="#000000" stroke="none">
<path d="M2055 4310 c-663 -71 -1222 -423 -1565 -985 -56 -92 -59 -100 -40
-103 32 -5 62 -60 56 -102 -9 -62 -81 -100 -135 -70 -16 8 -22 0 -44 -61 -20
-52 -24 -76 -17 -89 20 -38 12 -81 -23 -114 -27 -25 -36 -44 -46 -96 -7 -36
-14 -73 -17 -82 -5 -16 7 -18 127 -20 l133 -3 109 -132 109 -133 217 0 218 0
-5 -30 -4 -29 -127 -3 -126 -3 -73 -143 -73 -142 -110 0 c-106 0 -110 -1 -119
-24 -23 -61 -103 -75 -151 -27 -77 77 13 197 110 147 17 -9 31 -21 31 -26 0
-6 42 -10 100 -10 l100 0 55 110 c30 60 55 112 55 115 0 3 -135 5 -300 5
l-300 0 0 -77 c1 -114 45 -422 58 -408 3 3 14 -2 24 -12 19 -17 25 -79 8 -85
-7 -2 2 -39 21 -94 l33 -91 33 13 c43 18 77 9 109 -29 41 -49 23 -116 -38
-142 l-28 -11 60 -102 c265 -448 697 -785 1190 -927 207 -60 348 -79 580 -79
232 0 373 19 580 79 622 179 1130 658 1353 1275 156 432 157 958 1 1389 -255
704 -862 1210 -1598 1332 -138 22 -408 32 -531 19z m-576 -1294 c9 -11 9 -31
-1 -88 l-13 -73 -58 -3 c-64 -3 -87 8 -87 41 0 39 38 67 92 67 45 0 49 2 46
23 -2 18 -10 22 -48 25 -71 5 -73 22 -3 22 40 0 65 -5 72 -14z m-835 -77 c38
-18 60 -72 46 -114 -34 -103 -180 -79 -180 30 0 36 5 48 31 69 33 28 64 32
103 15z m1259 -222 c71 -42 101 -94 105 -181 4 -99 -66 -483 -101 -553 -34
-66 -114 -137 -185 -163 -52 -20 -73 -21 -232 -18 -169 3 -177 4 -220 30 l-45
26 -38 -216 c-31 -181 -40 -220 -58 -235 -26 -21 -39 -21 -64 -3 -19 14 -17
28 74 547 52 294 102 555 111 581 34 92 111 164 213 200 44 15 78 18 222 16
166 -3 171 -4 218 -31z m927 14 c14 -28 13 -38 -10 -61 -19 -19 -33 -20 -250
-20 -251 0 -277 -5 -333 -58 -42 -39 -57 -75 -57 -130 0 -35 6 -57 22 -77 37
-47 72 -55 250 -55 185 0 219 -10 275 -73 41 -47 57 -97 50 -167 -9 -102 -81
-204 -182 -258 l-50 -27 -280 0 -280 0 -3 32 c-6 60 10 63 294 63 243 0 252 1
295 23 120 64 146 226 46 287 -28 17 -51 20 -179 20 -81 0 -170 5 -199 11 -58
13 -117 59 -143 113 -22 47 -21 150 3 203 38 83 132 163 216 184 17 4 137 7
267 8 225 1 238 0 248 -18z m753 -10 c60 -29 102 -85 117 -154 9 -44 6 -73
-15 -187 -17 -95 -30 -139 -42 -147 -13 -10 -98 -13 -345 -13 l-328 0 -5 -22
c-31 -140 -32 -181 -5 -226 11 -18 34 -41 52 -52 31 -18 51 -20 285 -20 218 0
254 -2 268 -16 18 -18 12 -52 -13 -71 -20 -17 -498 -18 -556 -2 -82 23 -156
125 -156 216 0 61 80 474 100 522 23 51 86 120 140 154 62 38 115 47 290 44
151 -2 169 -4 213 -26z m-2928 -927 c37 -24 50 -75 30 -117 -44 -93 -175 -62
-175 41 0 72 84 116 145 76z"/>
<path d="M1494 2639 c-47 -11 -117 -67 -140 -110 -21 -42 -97 -475 -90 -515 4
-17 16 -44 28 -59 36 -46 73 -55 232 -55 138 0 146 1 197 28 88 46 103 80 150
338 21 120 39 230 39 244 0 39 -33 93 -71 115 -29 17 -55 20 -169 22 -74 1
-153 -2 -176 -8z"/>
<path d="M3131 2624 c-82 -41 -116 -107 -138 -261 l-6 -43 295 0 296 0 17 96
c16 90 16 98 0 140 -9 25 -30 53 -48 66 -30 21 -44 23 -197 26 -162 3 -166 2
-219 -24z"/>
<path d="M206 2470 c-3 -36 -6 -84 -6 -107 l0 -43 201 0 c157 0 199 3 193 13
-5 6 -41 53 -81 104 l-73 92 -114 3 -114 3 -6 -65z"/>
</g>
</svg>
